<svg xmlns="http://www.w3.org/2000/svg" viewBox="0 0 64 64">
  <style>
    .paper { fill: #eff1e7; }
    .outline { fill: none; stroke: #7b5b45; }
    .mark { fill: #7b5b45; }

    @media (prefers-color-scheme: dark) {
      .paper { fill: #202923; }
      .outline { stroke: #d0a27f; }
      .mark { fill: #d0a27f; }
    }
  </style>
  <path class="paper" d="M32 6.5c15.6-.4 25.2 9.4 25.5 24.4.4 15.8-10.3 26.2-26.2 26.6C15.7 57.9 6.8 47.2 6.5 32 6.2 17.2 16.1 6.9 32 6.5Z"/>
  <path class="outline" d="M32 6.5c15.6-.4 25.2 9.4 25.5 24.4.4 15.8-10.3 26.2-26.2 26.6C15.7 57.9 6.8 47.2 6.5 32 6.2 17.2 16.1 6.9 32 6.5Z" stroke-width="2.6"/>
  <g class="mark" transform="matrix(.026 0 0 -.026 15.46 37.43)">
    <path d="M170 30Q155 30 140 52.5Q125 75 116.5 108Q108 141 110 173Q110 205 113.5 224.5Q117 244 121 263Q124 269 124.5 273Q125 277 126.5 286Q128 295 133 316Q137 333 141.5 344Q146 355 149 359Q161 375 176 378.5Q191 382 203.5 375Q216 368 218 354Q224 349 224.5 331.5Q225 314 222 295.5Q219 277 213 269Q211 264 208.5 243Q206 222 203.5 199Q201 176 198 162Q195 144 200.5 139.5Q206 135 220.5 148.5Q235 162 259 197Q279 227 288.5 244Q298 261 303.5 275Q309 289 316 308Q321 324 325.5 334Q330 344 334 348Q345 364 363.5 361.5Q382 359 394 351Q406 339 408.5 318.5Q411 298 399 274Q391 258 383.5 236.22Q376 214.44 371.5 192.22Q367 170 367 154Q367 134 372.5 130.5Q378 127 386 127Q398 127 409 135.5Q420 144 441 166.33Q450 175.47 463 193.23Q476 211 488.5 230.93Q501 250.87 509.5 266.2Q518 281.53 518 285.62Q518 291.76 527 303Q533 311 536.5 315.5Q540 320 550 325Q558 329 568 326.5Q578 324 585 316Q590 312 592.5 296.5Q595 281 595 269Q592 258 586.2 238.38Q580.39 218.76 573.7 201.38Q567 184 562 178Q558 174 548 163.5Q538 153 530 141Q505 111 494 102Q483 93 475 85Q454 64 427 51.5Q400 39 376 37.5Q352 36 338 46Q307 62 307 100Q307 108 304.5 114.5Q302 121 302 121Q298 121 291.5 119Q285 117 278 105Q269 88 247.53 70.5Q226.05 53 204.03 41.5Q182 30 170 30Z"/>
    <path d="M566 24Q559 26 544 37Q529 48 517.5 70Q506 92 507 127Q508 157 511.5 169.5Q515 182 508 183Q503 184 488 174Q473 164 449 142Q425 120 391 84Q379 74 364.5 59.5Q350 45 335.5 38Q321 31 310 41L300 50Q293 56 288 66Q283 76 285 83L313 161Q325 187 329.5 199Q334 211 333.5 214Q333 217 328 216Q322 215 311 205.5Q300 196 296 190Q292 190 285.5 182Q279 174 273 168Q267 162 252 145.5Q237 129 220 111Q207 99 190 79Q173 59 160 43Q147 27 144 27Q126 28 111.5 39Q97 50 92 66Q86 77 91 106.5Q96 136 110 201Q114 216 117.5 227Q121 238 125 249Q129 260 134.5 274Q140 288 149 308Q154 322 153 334.5Q152 347 151 355Q151 370 160.5 379Q170 388 182 391.5Q194 395 201 393Q229 390 239 373Q249 356 250 340Q251 325 246 313Q241 301 238 293L227 266Q217 243 212.5 232.5Q208 222 207.5 218.5Q207 215 207 212Q208 209 216 215Q224 221 235.5 231.5Q247 242 257 250Q275 265 295.5 280.5Q316 296 336 308Q356 320 369 324Q386 321 400.5 307Q415 293 419 283Q424 268 420.5 256Q417 244 415 234Q414 230 411 219Q408 208 405 198.5Q402 189 402 189Q402 189 408 195Q414 201 424 209.5Q434 218 444 225Q494 263 523.5 273.5Q553 284 574 256Q586 245 589.5 226Q593 207 593 175Q594 162 595.5 146Q597 130 599.5 118Q602 106 604 103Q607 99 615 95.5Q623 92 630 90Q644 83 645.5 64.5Q647 46 631 36Q616 27 599.5 25Q583 23 566 24Z" transform="translate(517)"/>
  </g>
</svg>
